<?xml version="1.0" standalone="no"?>
<!DOCTYPE svg PUBLIC "-//W3C//DTD SVG 20010904//EN"
 "http://www.w3.org/TR/2001/REC-SVG-20010904/DTD/svg10.dtd">
<svg version="1.0" xmlns="http://www.w3.org/2000/svg"
 width="388.000000pt" height="388.000000pt" viewBox="0 0 388.000000 388.000000"
 preserveAspectRatio="xMidYMid meet">
<metadata>
Created by potrace 1.14, written by Peter Selinger 2001-2017
</metadata>
<g transform="translate(0.000000,388.000000) scale(0.100000,-0.100000)"
fill="#000000" stroke="none">
<path d="M1769 3606 c-2 -2 -31 -7 -63 -10 -33 -3 -74 -8 -91 -12 l-30 -5 10
-137 c6 -75 11 -148 10 -162 0 -22 -16 -31 -170 -97 -93 -40 -187 -78 -209
-85 -37 -11 -40 -11 -63 18 -78 91 -176 194 -187 194 -41 0 -287 -225 -398
-365 -65 -82 -84 -115 -71 -124 14 -9 129 -108 182 -157 l45 -42 -17 -53 c-10
-30 -46 -124 -80 -209 l-63 -155 -39 1 c-22 1 -93 5 -157 9 -117 7 -118 7
-127 -17 -25 -67 -31 -469 -8 -588 l12 -65 45 0 c25 0 93 3 152 7 75 5 110 3
121 -5 16 -13 154 -332 163 -377 7 -31 13 -24 -124 -148 -51 -46 -92 -89 -92
-95 0 -19 92 -131 205 -251 45 -47 178 -161 224 -191 22 -15 47 -25 54 -22 8
3 56 54 108 114 64 74 99 107 112 105 10 -1 47 -13 81 -27 34 -14 75 -25 90
-25 24 0 166 138 922 897 492 494 894 902 894 908 0 6 -16 46 -35 90 -19 44
-35 88 -35 99 0 19 28 49 148 155 40 35 72 69 72 76 0 44 -248 308 -388 414
l-83 63 -52 -54 c-29 -29 -77 -82 -108 -117 l-55 -64 -39 13 c-56 17 -369 141
-377 149 -4 3 -3 74 3 156 8 131 8 151 -6 161 -25 18 -180 34 -337 34 -79 0
-147 -2 -149 -4z m-362 -1958 c-3 -8 -6 -5 -6 6 -1 11 2 17 5 13 3 -3 4 -12 1
-19z m48 13 c3 -5 1 -12 -5 -16 -5 -3 -10 1 -10 9 0 18 6 21 15 7z"/>
<path d="M3381 2464 l-231 -236 6 -48 c4 -27 2 -56 -5 -67 -7 -14 -13 -170
-17 -439 l-7 -418 24 17 c53 37 82 48 139 49 48 1 66 -3 98 -25 51 -33 113
-108 129 -154 8 -22 15 -124 18 -272 12 -524 15 -613 25 -632 6 -10 21 -19 33
-19 l22 0 0 1240 c0 682 -1 1240 -1 1240 -1 0 -106 -106 -233 -236z"/>
<path d="M2786 1870 c-196 -197 -236 -242 -228 -256 6 -10 7 -78 4 -163 l-5
-146 179 7 c99 4 186 5 194 3 9 -3 23 -18 32 -33 20 -33 9 -63 -34 -95 -25
-19 -28 -19 -67 -3 -27 10 -88 18 -178 22 l-136 7 7 -369 c3 -203 8 -376 9
-384 7 -40 33 -82 58 -95 40 -21 118 -19 155 4 58 35 65 76 61 331 -2 124 -8
240 -12 258 -6 29 -3 38 21 63 43 44 86 35 118 -26 11 -21 12 -34 4 -54 -6
-15 -12 -123 -13 -251 -3 -237 -8 -269 -55 -346 -20 -31 -110 -104 -129 -104
-5 0 -15 -8 -22 -17 -8 -9 -9 -14 -4 -11 6 3 54 9 107 13 125 9 150 16 165 46
9 18 12 257 15 926 2 496 0 904 -3 907 -3 3 -112 -102 -243 -234z"/>
<path d="M2337 1421 c-59 -58 -107 -109 -107 -114 0 -9 206 -4 215 5 8 8 11
102 5 158 l-5 55 -108 -104z"/>
<path d="M2265 1195 c-5 -1 -28 -8 -51 -15 -32 -9 -46 -10 -63 0 -19 10 -27 7
-58 -16 -41 -31 -943 -924 -943 -933 0 -3 240 -5 532 -3 444 2 535 5 547 17 8
8 18 38 22 67 10 77 2 354 -12 410 -10 38 -10 52 1 72 24 47 85 51 122 10 21
-25 24 -52 8 -89 -8 -21 -12 -89 -13 -221 0 -159 3 -196 17 -226 19 -40 39
-52 64 -39 9 5 26 5 37 0 11 -4 58 -8 104 -8 l85 -1 -59 35 c-67 41 -97 72
-131 137 l-24 47 3 368 c2 202 2 374 -1 381 -3 8 -30 12 -91 11 -47 0 -90 -2
-96 -4z m83 -170 c43 -36 47 -62 12 -96 -37 -38 -81 -39 -109 -3 -28 35 -26
63 4 97 32 34 55 34 93 2z"/>
<path d="M3219 1181 c-19 -11 -41 -32 -49 -48 -19 -40 -27 -232 -23 -555 4
-299 11 -355 48 -350 11 1 64 5 117 9 l97 6 11 32 c7 20 11 174 12 416 1 417
-1 427 -55 478 -36 33 -109 38 -158 12z"/>
</g>
</svg>
